<svg width="21" height="22" viewBox="0 0 21 22" fill="none" xmlns="http://www.w3.org/2000/svg">
<path d="M10.0708 8.7713C9.77972 8.7713 9.49145 8.82864 9.22249 8.94005C8.95354 9.05145 8.70916 9.21474 8.50331 9.42059C8.29746 9.62644 8.13417 9.87082 8.02276 10.1398C7.91136 10.4087 7.85401 10.697 7.85401 10.9881C7.85401 11.2792 7.91136 11.5675 8.02276 11.8365C8.13417 12.1054 8.29746 12.3498 8.50331 12.5556C8.70916 12.7615 8.95354 12.9248 9.22249 13.0362C9.49145 13.1476 9.77972 13.2049 10.0708 13.2049C10.6588 13.2048 11.2226 12.9711 11.6382 12.5553C12.0539 12.1395 12.2873 11.5756 12.2871 10.9876C12.287 10.3997 12.0533 9.83588 11.6375 9.42024C11.2217 9.0046 10.6578 8.77117 10.0698 8.7713H10.0708ZM3.02053 8.7713C2.72941 8.7713 2.44115 8.82864 2.17219 8.94005C1.90323 9.05145 1.65885 9.21474 1.453 9.42059C1.24715 9.62644 1.08386 9.87082 0.972456 10.1398C0.861051 10.4087 0.803711 10.697 0.803711 10.9881C0.803711 11.2792 0.861051 11.5675 0.972456 11.8365C1.08386 12.1054 1.24715 12.3498 1.453 12.5556C1.65885 12.7615 1.90323 12.9248 2.17219 13.0362C2.44115 13.1476 2.72941 13.2049 3.02053 13.2049C3.60846 13.2048 4.17227 12.9711 4.58791 12.5553C5.00355 12.1395 5.23697 11.5756 5.23684 10.9876C5.23671 10.3997 5.00302 9.83588 4.58719 9.42024C4.17137 9.0046 3.60746 8.77117 3.01952 8.7713H3.02053ZM17.1211 8.7713C16.83 8.7713 16.5418 8.82864 16.2728 8.94005C16.0038 9.05145 15.7595 9.21474 15.5536 9.42059C15.3478 9.62644 15.1845 9.87082 15.0731 10.1398C14.9617 10.4087 14.9043 10.697 14.9043 10.9881C14.9043 11.2792 14.9617 11.5675 15.0731 11.8365C15.1845 12.1054 15.3478 12.3498 15.5536 12.5556C15.7595 12.7615 16.0038 12.9248 16.2728 13.0362C16.5418 13.1476 16.83 13.2049 17.1211 13.2049C17.7091 13.2048 18.2729 12.9711 18.6885 12.5553C19.1042 12.1395 19.3376 11.5756 19.3375 10.9876C19.3373 10.3997 19.1036 9.83588 18.6878 9.42024C18.272 9.0046 17.7081 8.77117 17.1201 8.7713H17.1211Z" fill="#A098AE"/>
</svg>
